<svg width="509" height="362" viewBox="0 0 509 362" fill="none" xmlns="http://www.w3.org/2000/svg">
<path d="M453.971 193.96C451.753 218.712 440.585 242.63 424.654 262.411C423.988 263.239 423.314 264.058 422.632 264.87C421.098 266.697 419.524 268.49 417.91 270.248C415.936 272.414 413.904 274.53 411.815 276.597C410.114 278.297 408.374 279.962 406.594 281.59C405.22 282.859 403.83 284.104 402.425 285.324C385.519 300.084 366.097 312.264 346.086 322.916C307.034 343.698 264.23 359.44 219.707 361.733C175.19 364.019 128.717 351.701 96.0699 322.365C52.0704 282.831 39.7905 216.89 57.6543 161.464C69.5358 124.59 93.7864 91.2321 126.79 69.4454C159.509 47.8484 200.785 38.1271 239.849 44.4816C271.033 26.1708 311.857 25.8204 345.759 39.3739C363.849 46.6074 380.083 57.3628 394.326 70.359C400.848 76.3232 406.951 82.7014 412.594 89.451C413.171 90.1347 413.742 90.8242 414.307 91.5194C416.673 94.4093 418.963 97.3587 421.175 100.367C424.351 104.682 427.365 109.093 430.22 113.599C431.005 114.84 431.784 116.087 432.545 117.345C433.056 118.19 433.574 119.04 434.079 119.896C434.091 119.914 434.099 119.933 434.103 119.954C442.018 133.404 448.488 147.756 451.86 162.757C452.455 165.411 452.954 168.077 453.341 170.766V170.772C453.68 173.053 453.935 175.345 454.108 177.649C454.514 183.081 454.469 188.536 453.971 193.96Z" fill="#3F3D56"/>
<path opacity="0.3" d="M337.797 231.378L249.512 160.32L335.28 234.225C335.446 234.495 335.676 234.723 335.952 234.89C336.228 235.057 336.54 235.158 336.865 235.185C337.189 235.212 337.515 235.164 337.816 235.045C338.117 234.926 338.384 234.739 338.596 234.5C338.807 234.261 338.956 233.977 339.031 233.671C339.106 233.365 339.105 233.046 339.027 232.741C338.949 232.436 338.796 232.153 338.583 231.916C338.369 231.679 338.1 231.495 337.797 231.378Z" fill="#F0F0F0"/>
<path d="M135.336 195.219C164.566 195.219 188.261 172.325 188.261 144.084C188.261 115.844 164.566 92.95 135.336 92.95C106.106 92.95 82.4104 115.844 82.4104 144.084C82.4104 172.325 106.106 195.219 135.336 195.219Z" fill="#F2F2F2"/>
<path d="M182.315 140.637C182.315 146.749 181.07 152.8 178.649 158.447C176.229 164.093 172.681 169.224 168.208 173.545C163.735 177.867 158.424 181.295 152.58 183.633C146.736 185.972 140.472 187.175 134.147 187.175C128.508 187.172 122.914 186.219 117.615 184.36C109.329 181.443 102.03 176.386 96.5123 169.74C90.9948 163.093 87.4705 155.111 86.3229 146.663C85.1754 138.216 86.4486 129.625 90.004 121.828C93.5594 114.031 99.2607 107.326 106.487 102.442C113.714 97.5589 122.188 94.6844 130.988 94.132C139.789 93.5795 148.577 95.3702 156.397 99.309C164.217 103.248 170.768 109.184 175.338 116.471C179.908 123.758 182.321 132.117 182.315 140.637Z" fill="white"/>
<path d="M125.821 139.488C134.032 139.488 140.688 133.057 140.688 125.124C140.688 117.192 134.032 110.761 125.821 110.761C117.61 110.761 110.954 117.192 110.954 125.124C110.954 133.057 117.61 139.488 125.821 139.488Z" fill="#E4E4E4"/>
<path d="M180.435 127.727C177.213 129.225 173.541 129.55 170.09 128.644C166.64 127.738 163.643 125.661 161.649 122.794C159.655 119.926 158.798 116.46 159.233 113.032C159.669 109.603 161.37 106.441 164.023 104.125C171.907 110.147 177.645 118.399 180.435 127.727Z" fill="#F2F2F2"/>
<path d="M150.203 161.321C153.158 161.321 155.555 159.005 155.555 156.15C155.555 153.294 153.158 150.979 150.203 150.979C147.247 150.979 144.851 153.294 144.851 156.15C144.851 159.005 147.247 161.321 150.203 161.321Z" fill="#E4E4E4"/>
<path d="M128.2 185.451C128.199 185.905 128.137 186.357 128.015 186.796C124.464 186.367 120.975 185.549 117.615 184.36C117.894 183.112 118.641 182.008 119.711 181.261C120.782 180.513 122.101 180.174 123.415 180.31C124.729 180.445 125.944 181.045 126.827 181.994C127.711 182.944 128.2 184.175 128.2 185.451Z" fill="#F2F2F2"/>
<path d="M96.6824 138.339C96.6821 140.962 95.6501 143.488 93.7952 145.403C91.9403 147.319 89.4012 148.482 86.692 148.658C85.4657 141.828 85.8232 134.821 87.7386 128.141C90.2373 128.543 92.5073 129.789 94.1449 131.656C95.7826 133.523 96.6817 135.891 96.6824 138.339Z" fill="#F2F2F2"/>
<path d="M360.64 121.91C361.856 121.91 362.842 120.957 362.842 119.782C362.842 118.608 361.856 117.655 360.64 117.655C359.424 117.655 358.439 118.608 358.439 119.782C358.439 120.957 359.424 121.91 360.64 121.91Z" fill="#6C63FF"/>
<path d="M340.33 70.1583C341.04 70.1583 341.616 69.6019 341.616 68.9156C341.616 68.2292 341.04 67.6728 340.33 67.6728C339.62 67.6728 339.044 68.2292 339.044 68.9156C339.044 69.6019 339.62 70.1583 340.33 70.1583Z" fill="#F0F0F0"/>
<path d="M133.98 313.765C134.691 313.765 135.266 313.208 135.266 312.522C135.266 311.835 134.691 311.279 133.98 311.279C133.27 311.279 132.694 311.835 132.694 312.522C132.694 313.208 133.27 313.765 133.98 313.765Z" fill="#F0F0F0"/>
<path d="M347.632 191.758C348.342 191.758 348.918 191.201 348.918 190.515C348.918 189.829 348.342 189.272 347.632 189.272C346.922 189.272 346.346 189.829 346.346 190.515C346.346 191.201 346.922 191.758 347.632 191.758Z" fill="#F0F0F0"/>
<path d="M181.645 203.495C182.861 203.495 183.847 202.542 183.847 201.368C183.847 200.193 182.861 199.24 181.645 199.24C180.429 199.24 179.444 200.193 179.444 201.368C179.444 202.542 180.429 203.495 181.645 203.495Z" fill="#6C63FF"/>
<path d="M101.96 249.332C107.702 249.332 112.356 244.835 112.356 239.287C112.356 233.74 107.702 229.243 101.96 229.243C96.2178 229.243 91.5631 233.74 91.5631 239.287C91.5631 244.835 96.2178 249.332 101.96 249.332Z" fill="#6C63FF"/>
<path d="M158.956 251.714C159.667 251.714 160.242 251.157 160.242 250.471C160.242 249.785 159.667 249.228 158.956 249.228C158.246 249.228 157.67 249.785 157.67 250.471C157.67 251.157 158.246 251.714 158.956 251.714Z" fill="#F0F0F0"/>
<path d="M289.783 57.5184C290.494 57.5184 291.069 56.962 291.069 56.2756C291.069 55.5892 290.494 55.0328 289.783 55.0328C289.073 55.0328 288.497 55.5892 288.497 56.2756C288.497 56.962 289.073 57.5184 289.783 57.5184Z" fill="#F0F0F0"/>
<path d="M213.071 322.383C213.781 322.383 214.357 321.826 214.357 321.14C214.357 320.453 213.781 319.897 213.071 319.897C212.361 319.897 211.785 320.453 211.785 321.14C211.785 321.826 212.361 322.383 213.071 322.383Z" fill="#F0F0F0"/>
<path d="M194.042 69.0093C194.752 69.0093 195.328 68.4528 195.328 67.7665C195.328 67.0801 194.752 66.5237 194.042 66.5237C193.331 66.5237 192.755 67.0801 192.755 67.7665C192.755 68.4528 193.331 69.0093 194.042 69.0093Z" fill="#F0F0F0"/>
<path d="M227.343 129.336C228.053 129.336 228.629 128.78 228.629 128.093C228.629 127.407 228.053 126.851 227.343 126.851C226.633 126.851 226.057 127.407 226.057 128.093C226.057 128.78 226.633 129.336 227.343 129.336Z" fill="#F0F0F0"/>
<path d="M176.368 277.365C177.078 277.365 177.654 276.808 177.654 276.122C177.654 275.436 177.078 274.879 176.368 274.879C175.657 274.879 175.081 275.436 175.081 276.122C175.081 276.808 175.657 277.365 176.368 277.365Z" fill="#F0F0F0"/>
<path d="M326.819 285.408C327.529 285.408 328.105 284.852 328.105 284.165C328.105 283.479 327.529 282.923 326.819 282.923C326.108 282.923 325.532 283.479 325.532 284.165C325.532 284.852 326.108 285.408 326.819 285.408Z" fill="#F0F0F0"/>
<path d="M260.216 213.016C260.926 213.016 261.502 212.459 261.502 211.773C261.502 211.087 260.926 210.53 260.216 210.53C259.505 210.53 258.929 211.087 258.929 211.773C258.929 212.459 259.505 213.016 260.216 213.016Z" fill="#F0F0F0"/>
<path d="M294.112 129.133C294.822 129.133 295.398 128.576 295.398 127.89C295.398 127.203 294.822 126.647 294.112 126.647C293.401 126.647 292.826 127.203 292.826 127.89C292.826 128.576 293.401 129.133 294.112 129.133Z" fill="#F0F0F0"/>
<path d="M355.738 170.607C357.146 170.607 358.288 169.504 358.288 168.143C358.288 166.782 357.146 165.679 355.738 165.679C354.329 165.679 353.187 166.782 353.187 168.143C353.187 169.504 354.329 170.607 355.738 170.607Z" fill="#FF6584"/>
<path d="M252.265 89.0218C253.674 89.0218 254.816 87.9185 254.816 86.5576C254.816 85.1967 253.674 84.0935 252.265 84.0935C250.857 84.0935 249.715 85.1967 249.715 86.5576C249.715 87.9185 250.857 89.0218 252.265 89.0218Z" fill="#FF6584"/>
<path d="M252.265 258.512C253.674 258.512 254.816 257.409 254.816 256.048C254.816 254.687 253.674 253.584 252.265 253.584C250.857 253.584 249.715 254.687 249.715 256.048C249.715 257.409 250.857 258.512 252.265 258.512Z" fill="#FF6584"/>
<path d="M411.167 270.248C410.173 270.249 409.207 270.562 408.414 271.141C407.622 271.719 407.045 272.531 406.772 273.454C406.652 273.85 406.592 274.26 406.594 274.672V281.59C408.372 279.964 410.112 278.299 411.815 276.597C413.902 274.528 415.934 272.412 417.91 270.248H411.167Z" fill="#6C63FF"/>
<path d="M435.359 331.949C427.68 331.949 419.265 331.669 410.111 331.108C362.768 328.203 301.443 318.105 237.434 302.673C173.425 287.241 114.379 268.319 71.1734 249.393C50.1265 240.173 33.9732 231.446 23.1626 223.454C11.717 214.992 6.71055 207.617 8.2817 201.533C11.3431 189.681 38.4498 187.088 60.6506 187L60.6581 188.724C30.1706 188.845 12.1845 193.542 10.0129 201.951C7.24658 212.66 29.8074 229.38 71.9101 247.823C115.021 266.707 173.958 285.593 237.866 301.001C301.773 316.408 362.985 326.489 410.225 329.388C456.358 332.219 484.405 327.7 487.171 316.99C489.468 308.098 474.328 294.999 444.54 280.106L445.36 278.575C467.004 289.397 492.128 304.919 488.903 317.408C487.331 323.492 479.325 327.729 465.107 330.003C457.002 331.299 447.047 331.949 435.359 331.949Z" fill="#6C63FF"/>
<path d="M424.939 177.695C457.946 177.695 484.703 151.843 484.703 119.953C484.703 88.0637 457.946 62.2119 424.939 62.2119C391.932 62.2119 365.175 88.0637 365.175 119.953C365.175 151.843 391.932 177.695 424.939 177.695Z" fill="white"/>
<path d="M424.939 61.3501C412.943 61.3501 401.215 64.7871 391.241 71.2266C381.266 77.666 373.491 86.8186 368.9 97.5269C364.309 108.235 363.108 120.018 365.449 131.386C367.789 142.754 373.566 153.196 382.049 161.392C390.532 169.588 401.34 175.17 413.106 177.431C424.872 179.692 437.068 178.531 448.151 174.096C459.235 169.66 468.708 162.149 475.373 152.512C482.038 142.874 485.595 131.544 485.595 119.953C485.624 112.25 484.075 104.617 481.037 97.4942C477.999 90.3716 473.532 83.9002 467.894 78.4528C462.255 73.0055 455.557 68.6898 448.185 65.7546C440.813 62.8193 432.913 61.3224 424.939 61.3501ZM424.939 176.833C413.295 176.833 401.913 173.497 392.232 167.247C382.55 160.997 375.004 152.114 370.548 141.72C366.093 131.327 364.927 119.89 367.198 108.857C369.47 97.8232 375.077 87.6882 383.31 79.7334C391.544 71.7787 402.034 66.3614 413.454 64.1667C424.874 61.9719 436.711 63.0984 447.469 67.4034C458.226 71.7085 467.421 78.999 473.89 88.3528C480.359 97.7066 483.811 108.704 483.811 119.953C483.841 127.431 482.339 134.841 479.391 141.755C476.443 148.669 472.108 154.951 466.635 160.238C461.162 165.526 454.66 169.714 447.504 172.563C440.348 175.411 432.679 176.862 424.939 176.833Z" fill="#2F2E41"/>
<path d="M372.492 133.783C372.219 133.783 371.954 133.691 371.742 133.524C371.53 133.357 371.384 133.124 371.329 132.865C369.619 124.452 369.928 115.772 372.231 107.492C374.534 99.2125 378.77 91.5525 384.614 85.1005C384.824 84.8741 385.119 84.7374 385.433 84.7204C385.747 84.7034 386.056 84.8075 386.291 85.0099C386.526 85.2122 386.668 85.4962 386.687 85.7998C386.705 86.1034 386.598 86.4017 386.39 86.6294C380.789 92.8124 376.73 100.153 374.523 108.088C372.316 116.022 372.02 124.34 373.658 132.402C373.694 132.57 373.69 132.742 373.648 132.908C373.606 133.073 373.526 133.228 373.414 133.36C373.303 133.492 373.162 133.599 373.003 133.672C372.843 133.745 372.669 133.783 372.492 133.783Z" fill="#2F2E41"/>
<path d="M424.902 173.599C445.881 173.599 462.887 157.167 462.887 136.898C462.887 116.63 445.881 100.198 424.902 100.198C403.923 100.198 386.916 116.63 386.916 136.898C386.916 157.167 403.923 173.599 424.902 173.599Z" fill="#6C63FF"/>
<path d="M412.829 150.754C410.367 150.688 407.302 150.606 404.942 148.939C404.239 148.423 403.661 147.764 403.249 147.009C402.838 146.254 402.602 145.422 402.558 144.569C402.515 143.964 402.618 143.357 402.859 142.796C403.099 142.235 403.47 141.735 403.944 141.336C405.177 140.329 406.977 140.093 408.918 140.644L406.907 126.449L408.383 126.254L410.747 142.942L409.514 142.395C408.085 141.762 406.124 141.44 404.905 142.435C404.606 142.695 404.373 143.019 404.224 143.38C404.075 143.741 404.014 144.131 404.047 144.519C404.083 145.153 404.26 145.772 404.566 146.335C404.872 146.897 405.3 147.389 405.82 147.777C407.658 149.074 410.1 149.241 412.871 149.316L412.829 150.754Z" fill="#2F2E41"/>
<path d="M399.609 127.674H391.586V129.113H399.609V127.674Z" fill="#2F2E41"/>
<path d="M424.933 127.674H416.91V129.113H424.933V127.674Z" fill="#2F2E41"/>
<path d="M426.497 182.671H392.066C390.783 182.672 389.552 183.165 388.644 184.042C387.737 184.918 387.227 186.107 387.225 187.347V261.078C387.229 266.075 388.647 270.975 391.326 275.249C394.005 279.523 397.844 283.007 402.425 285.324C403.834 284.106 405.224 282.861 406.594 281.59C408.372 279.964 410.112 278.299 411.815 276.597C413.902 274.528 415.934 272.412 417.91 270.248C419.528 268.49 421.102 266.697 422.632 264.87C423.316 264.06 423.99 263.241 424.654 262.411C440.585 242.63 451.753 218.712 453.971 193.96C450.415 190.388 446.148 187.546 441.427 185.606C436.706 183.666 431.628 182.668 426.497 182.671Z" fill="#2F2E41"/>
<path d="M427.752 198.057C426.933 197.282 425.963 196.671 424.899 196.26C423.834 195.849 422.696 195.645 421.55 195.661C419.557 195.676 417.632 196.358 416.102 197.591C415.858 197.783 415.626 197.988 415.407 198.206L387.225 226.129L366.787 246.382C366.476 246.684 366.219 247.033 366.025 247.416C365.719 248.008 365.562 248.662 365.568 249.323C365.574 249.868 365.691 250.405 365.914 250.905C366.136 251.405 366.459 251.858 366.864 252.236L367.667 252.995L373.494 258.482L373.5 258.476C374.283 259.09 375.263 259.421 376.272 259.412C376.835 259.406 377.391 259.293 377.909 259.078C378.426 258.863 378.895 258.551 379.287 258.16L380.232 257.229L386.999 250.524L387.225 250.3L427.907 209.99C429.523 208.388 430.415 206.23 430.386 203.993C430.357 201.755 429.41 199.62 427.752 198.057Z" fill="#6C63FF"/>
<path d="M427.466 119.777C428.722 117.21 427.434 114.469 425.228 112.83C422.447 110.764 418.852 111.106 415.689 112.084C412.227 113.154 408.843 115.081 405.102 114.97C403.769 114.947 402.474 114.535 401.387 113.789C400.3 113.043 399.472 111.997 399.01 110.789C397.007 105.825 399.269 100.277 402.756 96.513C404.725 94.3573 407.158 92.6443 409.885 91.4943C412.612 90.3443 415.567 89.7852 418.541 89.8563C421.937 90.0191 425.238 90.991 428.15 92.6854C431.062 94.3799 433.495 96.7442 435.232 99.5676C435.356 99.7604 435.552 99.8999 435.779 99.9575C436.006 100.015 436.247 99.9861 436.453 99.8768C439.1 98.7336 441.955 98.1087 444.853 98.0382C447.751 97.9678 450.635 98.4532 453.338 99.4664C457.393 101.063 460.849 103.814 463.247 107.354C465.645 110.893 466.873 115.054 466.766 119.283C466.736 120.393 468.52 120.392 468.55 119.283C468.661 113.371 466.403 107.645 462.247 103.304C460.136 101.139 457.598 99.4053 454.783 98.2045C451.967 97.0038 448.931 96.3606 445.853 96.3131C442.301 96.2401 438.778 96.9498 435.552 98.3885L436.773 98.6976C435.165 96.0825 433.005 93.8239 430.433 92.069C427.861 90.314 424.936 89.1021 421.847 88.5121C418.789 87.9608 415.644 88.0514 412.625 88.7778C409.606 89.5042 406.784 90.8494 404.35 92.7222C399.77 96.185 396.299 101.559 396.515 107.322C396.609 109.816 397.376 112.375 399.168 114.234C401.463 116.614 404.89 117.026 408.056 116.416C412.263 115.605 416.105 112.932 420.491 113.014C421.35 113.015 422.2 113.191 422.983 113.532C423.767 113.874 424.466 114.372 425.035 114.993C426.001 116.047 426.584 117.562 425.926 118.907C425.438 119.904 426.975 120.78 427.466 119.777Z" fill="#2F2E41"/>
<path d="M142.758 327.119C121.589 327.12 101.908 326.418 84.2893 325.002C61.2599 323.15 43.0107 320.174 30.0494 316.156C16.3264 311.901 9.04609 306.58 8.41049 300.34C7.17179 288.183 31.8012 276.942 52.6807 269.652L53.287 271.273C24.614 281.284 9.30715 291.547 10.1858 300.171C11.3048 311.156 38.3684 319.58 84.4371 323.284C131.609 327.076 193.688 325.732 259.238 319.498C324.788 313.265 385.948 302.89 431.449 290.285C475.886 277.975 500.731 264.614 499.612 253.63C498.682 244.509 479.867 237.087 446.632 232.728L446.871 231.02C471.021 234.187 500.082 240.651 501.387 253.461C502.023 259.701 495.956 266.291 483.355 273.049C471.453 279.432 454.155 285.788 431.941 291.942C386.339 304.575 325.067 314.97 259.413 321.214C218.227 325.13 178.392 327.119 142.758 327.119Z" fill="#6C63FF"/>
<path d="M498.603 259.674C504.345 259.674 509 255.177 509 249.629C509 244.082 504.345 239.584 498.603 239.584C492.861 239.584 488.207 244.082 488.207 249.629C488.207 255.177 492.861 259.674 498.603 259.674Z" fill="#6C63FF"/>
<path d="M197.107 20.0895C202.849 20.0895 207.503 15.5923 207.503 10.0448C207.503 4.49719 202.849 0 197.107 0C191.365 0 186.71 4.49719 186.71 10.0448C186.71 15.5923 191.365 20.0895 197.107 20.0895Z" fill="#E6E6E6"/>
<path d="M11.5702 259.099C17.3121 259.099 21.9668 254.602 21.9668 249.055C21.9668 243.507 17.3121 239.01 11.5702 239.01C5.82829 239.01 1.17357 243.507 1.17357 249.055C1.17357 254.602 5.82829 259.099 11.5702 259.099Z" fill="#E6E6E6"/>
<path d="M75.7943 68.4771C79.3093 68.4771 82.1587 65.7241 82.1587 62.3282C82.1587 58.9322 79.3093 56.1792 75.7943 56.1792C72.2794 56.1792 69.43 58.9322 69.43 62.3282C69.43 65.7241 72.2794 68.4771 75.7943 68.4771Z" fill="#6C63FF"/>
<path d="M46.0609 301.742C49.5759 301.742 52.4253 298.989 52.4253 295.593C52.4253 292.197 49.5759 289.444 46.0609 289.444C42.546 289.444 39.6966 292.197 39.6966 295.593C39.6966 298.989 42.546 301.742 46.0609 301.742Z" fill="#6C63FF"/>
<path d="M480.169 201.197C483.684 201.197 486.533 198.444 486.533 195.048C486.533 191.652 483.684 188.899 480.169 188.899C476.654 188.899 473.804 191.652 473.804 195.048C473.804 198.444 476.654 201.197 480.169 201.197Z" fill="#6C63FF"/>
<path d="M383.832 353.899C389.574 353.899 394.229 349.402 394.229 343.854C394.229 338.307 389.574 333.809 383.832 333.809C378.091 333.809 373.436 338.307 373.436 343.854C373.436 349.402 378.091 353.899 383.832 353.899Z" fill="#E6E6E6"/>
</svg>
